<svg width="99" height="99" viewBox="0 0 99 99" fill="none" xmlns="http://www.w3.org/2000/svg">
<circle cx="49.5" cy="49.5" r="49.5" fill="#D9D9D9"/>
<path d="M76.2499 40.2499H72.1082L61.2815 21.3032L56.2182 24.1966L65.3911 40.2499H34.6086L43.7844 24.1966L38.7182 21.3032L27.8915 40.2499H23.7499C23.3016 40.2504 22.8594 40.3541 22.4576 40.553C22.0559 40.7519 21.7053 41.0407 21.4332 41.3969C21.161 41.7531 20.9745 42.1673 20.8882 42.6072C20.8018 43.0471 20.8179 43.501 20.9353 43.9336L29.099 73.8703C29.4384 75.1035 30.1727 76.1914 31.1894 76.9673C32.2061 77.7433 33.4492 78.1646 34.7282 78.1666H65.2744C67.8936 78.1666 70.2094 76.402 70.9036 73.8645L79.0674 43.9307C79.1861 43.4979 79.2031 43.0435 79.1171 42.603C79.0311 42.1625 78.8444 41.7478 78.5716 41.3914C78.2988 41.035 77.9473 40.7466 77.5445 40.5485C77.1418 40.3505 76.6987 40.2483 76.2499 40.2499ZM65.2715 72.3332H34.7282L27.5707 46.0832H72.429L65.2715 72.3332Z" fill="url(#paint0_linear_183_552)"/>
<path d="M41.25 51.9165H47.0833V66.4998H41.25V51.9165ZM52.9167 51.9165H58.75V66.4998H52.9167V51.9165Z" fill="url(#paint1_linear_183_552)"/>
<defs>
<linearGradient id="paint0_linear_183_552" x1="50.0023" y1="21.3032" x2="50.0023" y2="78.1666" gradientUnits="userSpaceOnUse">
<stop stop-color="#FF0000"/>
<stop offset="1" stop-color="#A812CB"/>
</linearGradient>
<linearGradient id="paint1_linear_183_552" x1="50" y1="51.9165" x2="50" y2="66.4998" gradientUnits="userSpaceOnUse">
<stop stop-color="#FF0000"/>
<stop offset="1" stop-color="#A812CB"/>
</linearGradient>
</defs>
</svg>
