<svg width="176" height="200" viewBox="0 0 176 200" fill="none" xmlns="http://www.w3.org/2000/svg">
<line x1="5.23828" y1="34.979" x2="5.23828" y2="82.2478" stroke="url(#paint0_linear_14_1973)" stroke-width="10"/>
<line y1="-5" x2="49.0655" y2="-5" transform="matrix(-0.732085 0.681214 -0.732085 -0.681214 36.1582 1.89062)" stroke="url(#paint1_linear_14_1973)" stroke-width="10"/>
<line y1="-5" x2="49.0655" y2="-5" transform="matrix(-0.732085 -0.681214 0.732085 -0.681214 72.7334 35.3149)" stroke="url(#paint2_linear_14_1973)" stroke-width="10"/>
<line y1="-5" x2="48.0842" y2="-5" transform="matrix(-0.732085 -0.681214 0.732085 -0.681214 175.645 157.545)" stroke="url(#paint3_linear_14_1973)" stroke-width="10"/>
<line y1="-5" x2="49.0655" y2="-5" transform="matrix(-0.732085 -0.681214 0.732085 -0.681214 81.8779 192.248)" stroke="url(#paint4_linear_14_1973)" stroke-width="10"/>
<line y1="-5" x2="49.0655" y2="-5" transform="matrix(-0.732085 -0.681214 0.732085 -0.681214 144.868 188.466)" stroke="url(#paint5_linear_14_1973)" stroke-width="10"/>
<line y1="-5" x2="51.0282" y2="-5" transform="matrix(-0.732085 0.681214 -0.732085 -0.681214 168.656 154.097)" stroke="url(#paint6_linear_14_1973)" stroke-width="10"/>
<line y1="-5" x2="51.0282" y2="-5" transform="matrix(-0.732085 -0.681214 0.732085 -0.681214 141.225 34.7612)" stroke="url(#paint7_linear_14_1973)" stroke-width="10"/>
<line y1="-5" x2="49.0655" y2="-5" transform="matrix(-0.732085 -0.681214 0.732085 -0.681214 46.3184 64.6216)" stroke="url(#paint8_linear_14_1973)" stroke-width="10"/>
<line y1="-5" x2="96.1685" y2="-5" transform="matrix(-0.732085 0.681214 -0.732085 -0.681214 103.152 0)" stroke="url(#paint9_linear_14_1973)" stroke-width="10"/>
<line y1="-5" x2="98.1311" y2="-5" transform="matrix(-0.732085 0.681214 -0.732085 -0.681214 134.053 72.7939)" stroke="url(#paint10_linear_14_1973)" stroke-width="10"/>
<line y1="-5" x2="98.1311" y2="-5" transform="matrix(-0.732085 0.681214 -0.732085 -0.681214 140.148 124.79)" stroke="url(#paint11_linear_14_1973)" stroke-width="10"/>
<line y1="-5" x2="97.1498" y2="-5" transform="matrix(-0.732085 0.681214 -0.732085 -0.681214 106.919 49.1597)" stroke="url(#paint12_linear_14_1973)" stroke-width="10"/>
<line y1="-5" x2="94.2058" y2="-5" transform="matrix(-0.732085 -0.681214 0.732085 -0.681214 76.3164 139.805)" stroke="url(#paint13_linear_14_1973)" stroke-width="10"/>
<line y1="-5" x2="94.2058" y2="-5" transform="matrix(-0.732085 -0.681214 0.732085 -0.681214 175.883 113.334)" stroke="url(#paint14_linear_14_1973)" stroke-width="10"/>
<line x1="170.842" y1="113.445" x2="170.842" y2="160.714" stroke="url(#paint15_linear_14_1973)" stroke-width="10"/>
<line x1="136.299" y1="34.979" x2="136.299" y2="82.2478" stroke="url(#paint16_linear_14_1973)" stroke-width="10"/>
<line x1="43.8457" y1="118.172" x2="43.8457" y2="165.441" stroke="url(#paint17_linear_14_1973)" stroke-width="10"/>
<defs>
<linearGradient id="paint0_linear_14_1973" x1="169.238" y1="114.391" x2="3.94247" y2="80.6852" gradientUnits="userSpaceOnUse">
<stop stop-color="#A812CB"/>
<stop offset="1" stop-color="#FF0000"/>
</linearGradient>
<linearGradient id="paint1_linear_14_1973" x1="-9.8148" y1="-179" x2="83.5105" y2="-38.4828" gradientUnits="userSpaceOnUse">
<stop stop-color="#A812CB"/>
<stop offset="1" stop-color="#FF0000"/>
</linearGradient>
<linearGradient id="paint2_linear_14_1973" x1="-127.53" y1="9.54589" x2="15.2342" y2="-80.9829" gradientUnits="userSpaceOnUse">
<stop stop-color="#A812CB"/>
<stop offset="1" stop-color="#FF0000"/>
</linearGradient>
<linearGradient id="paint3_linear_14_1973" x1="32.4439" y1="33.234" x2="171.689" y2="-56.4858" gradientUnits="userSpaceOnUse">
<stop stop-color="#A812CB"/>
<stop offset="1" stop-color="#FF0000"/>
</linearGradient>
<linearGradient id="paint4_linear_14_1973" x1="-11.65" y1="126.219" x2="132.159" y2="35.3505" gradientUnits="userSpaceOnUse">
<stop stop-color="#A812CB"/>
<stop offset="1" stop-color="#FF0000"/>
</linearGradient>
<linearGradient id="paint5_linear_14_1973" x1="34.8408" y1="81.6708" x2="177.302" y2="-10.6099" gradientUnits="userSpaceOnUse">
<stop stop-color="#A812CB"/>
<stop offset="1" stop-color="#FF0000"/>
</linearGradient>
<linearGradient id="paint6_linear_14_1973" x1="59.7926" y1="173.846" x2="-32.0569" y2="29.3032" gradientUnits="userSpaceOnUse">
<stop stop-color="#FF0000"/>
<stop offset="1" stop-color="#A812CB"/>
</linearGradient>
<linearGradient id="paint7_linear_14_1973" x1="-85.3632" y1="-41.7193" x2="57.9132" y2="-137.019" gradientUnits="userSpaceOnUse">
<stop stop-color="#A812CB"/>
<stop offset="1" stop-color="#FF0000"/>
</linearGradient>
<linearGradient id="paint8_linear_14_1973" x1="-127.183" y1="54.4472" x2="14.5537" y2="-36.4418" gradientUnits="userSpaceOnUse">
<stop stop-color="#A812CB"/>
<stop offset="1" stop-color="#FF0000"/>
</linearGradient>
<linearGradient id="paint9_linear_14_1973" x1="39.244" y1="-133.848" x2="132.593" y2="4.95382" gradientUnits="userSpaceOnUse">
<stop stop-color="#A812CB"/>
<stop offset="1" stop-color="#FF0000"/>
</linearGradient>
<linearGradient id="paint10_linear_14_1973" x1="7.08516" y1="-52.8841" x2="100.034" y2="85.1564" gradientUnits="userSpaceOnUse">
<stop stop-color="#A812CB"/>
<stop offset="1" stop-color="#FF0000"/>
</linearGradient>
<linearGradient id="paint11_linear_14_1973" x1="-30.7319" y1="-15.7609" x2="62.5935" y2="124.757" gradientUnits="userSpaceOnUse">
<stop stop-color="#A812CB"/>
<stop offset="1" stop-color="#FF0000"/>
</linearGradient>
<linearGradient id="paint12_linear_14_1973" x1="4.26671" y1="-98.1391" x2="97.9526" y2="41.5105" gradientUnits="userSpaceOnUse">
<stop stop-color="#A812CB"/>
<stop offset="1" stop-color="#FF0000"/>
</linearGradient>
<linearGradient id="paint13_linear_14_1973" x1="-47.0011" y1="90.156" x2="94.7692" y2="-2.13206" gradientUnits="userSpaceOnUse">
<stop stop-color="#A812CB"/>
<stop offset="1" stop-color="#FF0000"/>
</linearGradient>
<linearGradient id="paint14_linear_14_1973" x1="0.8776" y1="-1.06042" x2="121.117" y2="-121.829" gradientUnits="userSpaceOnUse">
<stop stop-color="#A812CB"/>
<stop offset="1" stop-color="#FF0000"/>
</linearGradient>
<linearGradient id="paint15_linear_14_1973" x1="169.842" y1="114.864" x2="1.68672" y2="77.4999" gradientUnits="userSpaceOnUse">
<stop stop-color="#A812CB"/>
<stop offset="1" stop-color="#FF0000"/>
</linearGradient>
<linearGradient id="paint16_linear_14_1973" x1="167.299" y1="120.063" x2="-1.26593" y2="80.6149" gradientUnits="userSpaceOnUse">
<stop stop-color="#A812CB"/>
<stop offset="1" stop-color="#FF0000"/>
</linearGradient>
<linearGradient id="paint17_linear_14_1973" x1="175.346" y1="116.754" x2="8.60815" y2="81.4801" gradientUnits="userSpaceOnUse">
<stop stop-color="#A812CB"/>
<stop offset="1" stop-color="#FF0000"/>
</linearGradient>
</defs>
</svg>
