<svg width="45" height="45" viewBox="0 0 45 45" fill="none" xmlns="http://www.w3.org/2000/svg">
<g filter="url(#filter0_d_14_1761)">
<circle cx="20.5" cy="20.5" r="12.5" fill="#191919"/>
<circle cx="20.5" cy="20.5" r="12" stroke="white"/>
</g>
<path d="M17.375 22.0625C17.4637 22.0625 17.5381 22.0325 17.5981 21.9725C17.6577 21.9129 17.6875 21.8387 17.6875 21.75V19.25C17.6875 19.1613 17.6575 19.0871 17.5975 19.0275C17.5375 18.9675 17.4631 18.9375 17.3744 18.9375C17.2856 18.9375 17.2115 18.9675 17.1519 19.0275C17.0923 19.0875 17.0625 19.1617 17.0625 19.25V21.75C17.0625 21.8387 17.0925 21.9129 17.1525 21.9725C17.2125 22.0325 17.2863 22.0625 17.375 22.0625ZM20.5 22.0625C20.5887 22.0625 20.6631 22.0325 20.7231 21.9725C20.7827 21.9129 20.8125 21.8387 20.8125 21.75V19.25C20.8125 19.1613 20.7825 19.0871 20.7225 19.0275C20.6625 18.9675 20.5883 18.9375 20.5 18.9375C20.4117 18.9375 20.3375 18.9675 20.2775 19.0275C20.2179 19.0875 20.1881 19.1617 20.1881 19.25V21.75C20.1881 21.8387 20.2181 21.9129 20.2781 21.9725C20.3381 22.0325 20.4125 22.0625 20.5012 22.0625H20.5ZM23.625 22.0625C23.7137 22.0625 23.7881 22.0325 23.8481 21.9725C23.9077 21.9129 23.9375 21.8387 23.9375 21.75V19.25C23.9375 19.1613 23.9075 19.0871 23.8475 19.0275C23.7875 18.9675 23.7133 18.9375 23.625 18.9375C23.5367 18.9375 23.4625 18.9675 23.4025 19.0275C23.3429 19.0875 23.3131 19.1617 23.3131 19.25V21.75C23.3131 21.8387 23.3431 21.9129 23.4031 21.9725C23.4631 22.0325 23.5375 22.0625 23.6263 22.0625H23.625ZM15.885 23.625H25.1163C25.2121 23.625 25.3002 23.585 25.3806 23.505C25.4606 23.4246 25.5006 23.3365 25.5006 23.2406V17.7594C25.5006 17.6635 25.4606 17.5754 25.3806 17.495C25.2998 17.415 25.2115 17.375 25.1156 17.375H15.8844C15.7885 17.375 15.7004 17.415 15.62 17.495C15.54 17.5754 15.5 17.6635 15.5 17.7594V23.2406C15.5 23.3365 15.54 23.4246 15.62 23.505C15.7004 23.585 15.7885 23.625 15.8844 23.625H15.885ZM15.8844 24.25C15.5969 24.25 15.3569 24.1538 15.1644 23.9613C14.9715 23.7683 14.875 23.5281 14.875 23.2406V17.7594C14.875 17.4719 14.9715 17.2319 15.1644 17.0394C15.3569 16.8465 15.5969 16.75 15.8844 16.75H16.4375V15.8125C16.4375 15.7237 16.4675 15.6496 16.5275 15.59C16.5875 15.53 16.6619 15.5 16.7506 15.5C16.8394 15.5 16.9135 15.53 16.9731 15.59C17.0327 15.65 17.0625 15.7242 17.0625 15.8125V16.75H20.1875V15.8125C20.1875 15.7237 20.2175 15.6496 20.2775 15.59C20.3375 15.53 20.4117 15.5 20.5 15.5C20.5883 15.5 20.6625 15.53 20.7225 15.59C20.7821 15.65 20.8119 15.7242 20.8119 15.8125V16.75H23.9369V15.8125C23.9369 15.7237 23.9669 15.6496 24.0269 15.59C24.0873 15.53 24.1617 15.5 24.25 15.5C24.3383 15.5 24.4125 15.53 24.4725 15.59C24.5321 15.65 24.5619 15.7242 24.5619 15.8125V16.75H25.115C25.4025 16.75 25.6425 16.8465 25.835 17.0394C26.0279 17.2319 26.1244 17.4719 26.1244 17.7594V23.2406C26.1244 23.5281 26.0281 23.7681 25.8356 23.9606C25.6427 24.1535 25.4025 24.25 25.115 24.25H24.5625V25.1875C24.5625 25.2762 24.5325 25.3504 24.4725 25.41C24.4125 25.47 24.3383 25.5 24.25 25.5C24.1617 25.5 24.0875 25.47 24.0275 25.41C23.9679 25.3504 23.9381 25.2762 23.9381 25.1875V24.25H20.8131V25.1875C20.8131 25.2762 20.7831 25.3504 20.7231 25.41C20.6627 25.47 20.5883 25.5 20.5 25.5C20.4117 25.5 20.3375 25.47 20.2775 25.41C20.2179 25.3504 20.1881 25.2762 20.1881 25.1875V24.25H17.0631V25.1875C17.0631 25.2762 17.0331 25.3504 16.9731 25.41C16.9131 25.47 16.8388 25.5 16.75 25.5C16.6612 25.5 16.5871 25.47 16.5275 25.41C16.4675 25.3504 16.4375 25.2762 16.4375 25.1875V24.25H15.8844Z" fill="white"/>
<defs>
<filter id="filter0_d_14_1761" x="0" y="0" width="45" height="45" filterUnits="userSpaceOnUse" color-interpolation-filters="sRGB">
<feFlood flood-opacity="0" result="BackgroundImageFix"/>
<feColorMatrix in="SourceAlpha" type="matrix" values="0 0 0 0 0 0 0 0 0 0 0 0 0 0 0 0 0 0 127 0" result="hardAlpha"/>
<feOffset dx="2" dy="2"/>
<feGaussianBlur stdDeviation="5"/>
<feComposite in2="hardAlpha" operator="out"/>
<feColorMatrix type="matrix" values="0 0 0 0 1 0 0 0 0 1 0 0 0 0 1 0 0 0 1 0"/>
<feBlend mode="normal" in2="BackgroundImageFix" result="effect1_dropShadow_14_1761"/>
<feBlend mode="normal" in="SourceGraphic" in2="effect1_dropShadow_14_1761" result="shape"/>
</filter>
</defs>
</svg>
