<svg width="45" height="45" viewBox="0 0 45 45" fill="none" xmlns="http://www.w3.org/2000/svg">
<g filter="url(#filter0_d_14_1750)">
<circle cx="20.5" cy="20.5" r="12.5" fill="#191919"/>
<circle cx="20.5" cy="20.5" r="12" stroke="white"/>
</g>
<path fill-rule="evenodd" clip-rule="evenodd" d="M21.6301 18.2792C20.879 18.196 20.1211 18.196 19.3701 18.2792C18.8088 18.3417 18.3538 18.7842 18.2876 19.3524C18.1984 20.1148 18.1984 20.885 18.2876 21.6474C18.3538 22.2161 18.8088 22.6574 19.3701 22.7205C20.1151 22.8036 20.8851 22.8036 21.6301 22.7205C21.9051 22.6899 22.1617 22.5672 22.3582 22.3724C22.5547 22.1776 22.6796 21.9221 22.7126 21.6474C22.8019 20.8849 22.8019 20.1149 22.7126 19.3524C22.6796 19.0776 22.5547 18.8221 22.3582 18.6273C22.1617 18.4325 21.9051 18.3098 21.6301 18.2792ZM19.4738 19.2111C20.1501 19.1361 20.8501 19.1361 21.5263 19.2111C21.5907 19.2182 21.6509 19.2467 21.6972 19.292C21.7436 19.3374 21.7734 19.3969 21.7819 19.4611C21.8626 20.1511 21.8626 20.8486 21.7819 21.5386C21.7734 21.603 21.7435 21.6626 21.697 21.7079C21.6505 21.7532 21.5902 21.7816 21.5257 21.7886C20.8438 21.8641 20.1557 21.8641 19.4738 21.7886C19.4094 21.7815 19.3492 21.753 19.3029 21.7077C19.2566 21.6624 19.2267 21.6029 19.2182 21.5386C19.1376 20.8485 19.1376 20.1513 19.2182 19.4611C19.2268 19.3968 19.2567 19.3372 19.3031 19.2919C19.3496 19.2465 19.4099 19.2181 19.4744 19.2111H19.4738Z" fill="white"/>
<path fill-rule="evenodd" clip-rule="evenodd" d="M22.8438 14.875C22.8438 14.7507 22.7944 14.6315 22.7065 14.5435C22.6185 14.4556 22.4993 14.4062 22.375 14.4062C22.2507 14.4062 22.1315 14.4556 22.0435 14.5435C21.9556 14.6315 21.9062 14.7507 21.9062 14.875V16.4525C21.5941 16.4306 21.2815 16.416 20.9688 16.4088V15.5C20.9688 15.3757 20.9194 15.2565 20.8315 15.1685C20.7435 15.0806 20.6243 15.0312 20.5 15.0312C20.3757 15.0312 20.2565 15.0806 20.1685 15.1685C20.0806 15.2565 20.0312 15.3757 20.0312 15.5V16.4088C19.7185 16.416 19.4059 16.4306 19.0938 16.4525V14.875C19.0938 14.7507 19.0444 14.6315 18.9565 14.5435C18.8685 14.4556 18.7493 14.4062 18.625 14.4062C18.5007 14.4062 18.3815 14.4556 18.2935 14.5435C18.2056 14.6315 18.1562 14.7507 18.1562 14.875V16.545C17.7566 16.6176 17.3889 16.811 17.1026 17.0991C16.8162 17.3872 16.6251 17.7562 16.555 18.1562H14.875C14.7507 18.1562 14.6315 18.2056 14.5435 18.2935C14.4556 18.3815 14.4062 18.5007 14.4062 18.625C14.4062 18.7493 14.4556 18.8685 14.5435 18.9565C14.6315 19.0444 14.7507 19.0938 14.875 19.0938H16.4606C16.4381 19.4062 16.4231 19.7188 16.415 20.0312H15.5C15.3757 20.0312 15.2565 20.0806 15.1685 20.1685C15.0806 20.2565 15.0312 20.3757 15.0312 20.5C15.0312 20.6243 15.0806 20.7435 15.1685 20.8315C15.2565 20.9194 15.3757 20.9688 15.5 20.9688H16.415C16.4231 21.2812 16.4381 21.5938 16.4606 21.9062H14.875C14.7507 21.9062 14.6315 21.9556 14.5435 22.0435C14.4556 22.1315 14.4062 22.2507 14.4062 22.375C14.4062 22.4993 14.4556 22.6185 14.5435 22.7065C14.6315 22.7944 14.7507 22.8438 14.875 22.8438H16.555C16.6251 23.2438 16.8162 23.6128 17.1026 23.9009C17.3889 24.189 17.7566 24.3824 18.1562 24.455V26.125C18.1562 26.2493 18.2056 26.3685 18.2935 26.4565C18.3815 26.5444 18.5007 26.5938 18.625 26.5938C18.7493 26.5938 18.8685 26.5444 18.9565 26.4565C19.0444 26.3685 19.0938 26.2493 19.0938 26.125V24.5475C19.405 24.5694 19.7181 24.5844 20.0312 24.5912V25.5C20.0312 25.6243 20.0806 25.7435 20.1685 25.8315C20.2565 25.9194 20.3757 25.9688 20.5 25.9688C20.6243 25.9688 20.7435 25.9194 20.8315 25.8315C20.9194 25.7435 20.9688 25.6243 20.9688 25.5V24.5912C21.2815 24.584 21.5941 24.5694 21.9062 24.5475V26.125C21.9062 26.2493 21.9556 26.3685 22.0435 26.4565C22.1315 26.5444 22.2507 26.5938 22.375 26.5938C22.4993 26.5938 22.6185 26.5444 22.7065 26.4565C22.7944 26.3685 22.8438 26.2493 22.8438 26.125V24.455C23.2434 24.3824 23.6111 24.189 23.8974 23.9009C24.1838 23.6128 24.3749 23.2438 24.445 22.8438H26.125C26.2493 22.8438 26.3685 22.7944 26.4565 22.7065C26.5444 22.6185 26.5938 22.4993 26.5938 22.375C26.5938 22.2507 26.5444 22.1315 26.4565 22.0435C26.3685 21.9556 26.2493 21.9062 26.125 21.9062H24.5394C24.5619 21.5938 24.5769 21.2812 24.585 20.9688H25.5C25.6243 20.9688 25.7435 20.9194 25.8315 20.8315C25.9194 20.7435 25.9688 20.6243 25.9688 20.5C25.9688 20.3757 25.9194 20.2565 25.8315 20.1685C25.7435 20.0806 25.6243 20.0312 25.5 20.0312H24.585C24.5769 19.7188 24.5619 19.4062 24.5394 19.0938H26.125C26.2493 19.0938 26.3685 19.0444 26.4565 18.9565C26.5444 18.8685 26.5938 18.7493 26.5938 18.625C26.5938 18.5007 26.5444 18.3815 26.4565 18.2935C26.3685 18.2056 26.2493 18.1562 26.125 18.1562H24.445C24.3749 17.7562 24.1838 17.3872 23.8974 17.0991C23.6111 16.811 23.2434 16.6176 22.8438 16.545V14.875ZM18.3956 17.4563C19.7943 17.3012 21.2057 17.3012 22.6044 17.4563C23.0875 17.5106 23.4731 17.8925 23.5288 18.3681C23.6944 19.7845 23.6944 21.2155 23.5288 22.6319C23.4994 22.8656 23.3922 23.0827 23.2244 23.248C23.0565 23.4133 22.8379 23.5173 22.6038 23.5431C21.2053 23.698 19.7941 23.698 18.3956 23.5431C18.1616 23.5172 17.9431 23.4131 17.7754 23.2478C17.6077 23.0825 17.5006 22.8655 17.4712 22.6319C17.3056 21.2155 17.3056 19.7845 17.4712 18.3681C17.5006 18.1344 17.6078 17.9173 17.7756 17.752C17.9435 17.5867 18.1621 17.4827 18.3962 17.4569L18.3956 17.4563Z" fill="white"/>
<defs>
<filter id="filter0_d_14_1750" x="0" y="0" width="45" height="45" filterUnits="userSpaceOnUse" color-interpolation-filters="sRGB">
<feFlood flood-opacity="0" result="BackgroundImageFix"/>
<feColorMatrix in="SourceAlpha" type="matrix" values="0 0 0 0 0 0 0 0 0 0 0 0 0 0 0 0 0 0 127 0" result="hardAlpha"/>
<feOffset dx="2" dy="2"/>
<feGaussianBlur stdDeviation="5"/>
<feComposite in2="hardAlpha" operator="out"/>
<feColorMatrix type="matrix" values="0 0 0 0 1 0 0 0 0 1 0 0 0 0 1 0 0 0 1 0"/>
<feBlend mode="normal" in2="BackgroundImageFix" result="effect1_dropShadow_14_1750"/>
<feBlend mode="normal" in="SourceGraphic" in2="effect1_dropShadow_14_1750" result="shape"/>
</filter>
</defs>
</svg>
