<svg width="45" height="45" viewBox="0 0 45 45" fill="none" xmlns="http://www.w3.org/2000/svg">
<g filter="url(#filter0_d_14_1746)">
<circle cx="20.5" cy="20.5" r="12.5" fill="#191919"/>
<circle cx="20.5" cy="20.5" r="12" stroke="white"/>
</g>
<path d="M26.5938 17.6875C26.7891 17.6875 26.9722 17.7241 27.1431 17.7974C27.314 17.8706 27.4629 17.9707 27.5898 18.0977C27.7168 18.2246 27.8169 18.3735 27.8901 18.5444C27.9634 18.7153 28 18.8984 28 19.0938V23.3125H13V19.0938C13 18.8984 13.0366 18.7153 13.1099 18.5444C13.1831 18.3735 13.2832 18.2246 13.4102 18.0977C13.5371 17.9707 13.686 17.8706 13.8569 17.7974C14.0278 17.7241 14.2109 17.6875 14.4062 17.6875H26.5938ZM27.0625 19.0938C27.0625 18.9668 27.0161 18.8569 26.9233 18.7642C26.8306 18.6714 26.7207 18.625 26.5938 18.625H14.4062C14.2793 18.625 14.1694 18.6714 14.0767 18.7642C13.9839 18.8569 13.9375 18.9668 13.9375 19.0938V22.375H27.0625V19.0938ZM25.1875 19.5625H26.125V20.5H25.1875V19.5625ZM23.3125 19.5625H24.25V20.5H23.3125V19.5625Z" fill="white"/>
<defs>
<filter id="filter0_d_14_1746" x="0" y="0" width="45" height="45" filterUnits="userSpaceOnUse" color-interpolation-filters="sRGB">
<feFlood flood-opacity="0" result="BackgroundImageFix"/>
<feColorMatrix in="SourceAlpha" type="matrix" values="0 0 0 0 0 0 0 0 0 0 0 0 0 0 0 0 0 0 127 0" result="hardAlpha"/>
<feOffset dx="2" dy="2"/>
<feGaussianBlur stdDeviation="5"/>
<feComposite in2="hardAlpha" operator="out"/>
<feColorMatrix type="matrix" values="0 0 0 0 1 0 0 0 0 1 0 0 0 0 1 0 0 0 1 0"/>
<feBlend mode="normal" in2="BackgroundImageFix" result="effect1_dropShadow_14_1746"/>
<feBlend mode="normal" in="SourceGraphic" in2="effect1_dropShadow_14_1746" result="shape"/>
</filter>
</defs>
</svg>
