<svg width="45" height="45" viewBox="0 0 45 45" fill="none" xmlns="http://www.w3.org/2000/svg">
<g filter="url(#filter0_d_14_1756)">
<circle cx="20.5" cy="20.5" r="12.5" fill="#191919"/>
<circle cx="20.5" cy="20.5" r="12" stroke="white"/>
</g>
<g clip-path="url(#clip0_14_1756)">
<path d="M22.375 17.6875H25.6563V18.625H22.375V17.6875ZM22.375 20.5H27.0625V21.4375H22.375V20.5ZM22.375 23.3125H25.6563V24.25H22.375V23.3125ZM17.6875 22.4612V16.2812H16.75V22.4612C16.4372 22.5718 16.1736 22.7894 16.0058 23.0755C15.838 23.3617 15.7767 23.6979 15.8328 24.0249C15.8889 24.3518 16.0587 24.6484 16.3123 24.8622C16.566 25.0761 16.887 25.1933 17.2188 25.1933C17.5505 25.1933 17.8715 25.0761 18.1252 24.8622C18.3788 24.6484 18.5487 24.3518 18.6048 24.0249C18.6608 23.6979 18.5996 23.3617 18.4317 23.0755C18.2639 22.7894 18.0003 22.5718 17.6875 22.4612Z" fill="white"/>
<path d="M27.0625 14.8752H19.0816C18.7875 14.4818 18.3768 14.1911 17.908 14.0445C17.4392 13.8979 16.9361 13.9028 16.4702 14.0585C16.0043 14.2142 15.5994 14.5129 15.3131 14.912C15.0267 15.311 14.8734 15.7902 14.875 16.2814V21.4893C14.4228 21.9508 14.1169 22.5355 13.9957 23.1702C13.8745 23.8048 13.9434 24.4611 14.1937 25.0568C14.444 25.6525 14.8646 26.161 15.4028 26.5186C15.9409 26.8762 16.5726 27.0669 17.2188 27.0669C17.8649 27.0669 18.4966 26.8762 19.0347 26.5186C19.5729 26.161 19.9935 25.6525 20.2438 25.0568C20.4941 24.4611 20.563 23.8048 20.4418 23.1702C20.3206 22.5355 20.0147 21.9508 19.5625 21.4893V16.2814C19.5625 16.124 19.5466 15.967 19.5152 15.8127H27.0625V14.8752ZM17.2188 26.1252C16.7443 26.1259 16.2808 25.9823 15.8897 25.7136C15.4987 25.4448 15.1986 25.0635 15.0292 24.6203C14.8597 24.1771 14.8291 23.6928 14.9412 23.2318C15.0533 22.7707 15.3029 22.3546 15.6569 22.0386L15.8125 21.8985V16.2814C15.8125 15.9085 15.9607 15.5508 16.2244 15.2871C16.4881 15.0234 16.8458 14.8752 17.2188 14.8752C17.5917 14.8752 17.9494 15.0234 18.2131 15.2871C18.4768 15.5508 18.625 15.9085 18.625 16.2814V21.8985L18.7806 22.0386C19.1346 22.3546 19.3842 22.7707 19.4963 23.2318C19.6084 23.6928 19.5778 24.1771 19.4084 24.6203C19.239 25.0635 18.9388 25.4448 18.5478 25.7136C18.1567 25.9823 17.6932 26.1259 17.2188 26.1252Z" fill="white"/>
</g>
<defs>
<filter id="filter0_d_14_1756" x="0" y="0" width="45" height="45" filterUnits="userSpaceOnUse" color-interpolation-filters="sRGB">
<feFlood flood-opacity="0" result="BackgroundImageFix"/>
<feColorMatrix in="SourceAlpha" type="matrix" values="0 0 0 0 0 0 0 0 0 0 0 0 0 0 0 0 0 0 127 0" result="hardAlpha"/>
<feOffset dx="2" dy="2"/>
<feGaussianBlur stdDeviation="5"/>
<feComposite in2="hardAlpha" operator="out"/>
<feColorMatrix type="matrix" values="0 0 0 0 1 0 0 0 0 1 0 0 0 0 1 0 0 0 1 0"/>
<feBlend mode="normal" in2="BackgroundImageFix" result="effect1_dropShadow_14_1756"/>
<feBlend mode="normal" in="SourceGraphic" in2="effect1_dropShadow_14_1756" result="shape"/>
</filter>
<clipPath id="clip0_14_1756">
<rect width="15" height="15" fill="white" transform="translate(13 13)"/>
</clipPath>
</defs>
</svg>
